<svg width="955" height="1117" viewBox="0 0 955 1117" fill="none" xmlns="http://www.w3.org/2000/svg"><path fill="#55229E" fill-opacity=".63" d="M0 0h884v1117H0z"/><path d="M955 47.5c0 67.103-54.397 121.5-121.5 121.5C766.397 169 712 114.603 712 47.5 712-19.603 766.397-74 833.5-74 900.603-74 955-19.603 955 47.5Zm-225.694 0c0 57.545 46.649 104.194 104.194 104.194S937.694 105.045 937.694 47.5 891.045-56.695 833.5-56.695 729.306-10.045 729.306 47.5Z" fill="#fff" fill-opacity=".3"/><path d="M928 47.5c0 52.19-42.309 94.5-94.5 94.5S739 99.69 739 47.5 781.309-47 833.5-47 928-4.69 928 47.5Zm-171.54 0c0 42.548 34.492 77.04 77.04 77.04 42.548 0 77.04-34.492 77.04-77.04 0-42.548-34.492-77.04-77.04-77.04-42.548 0-77.04 34.492-77.04 77.04ZM955 1067.5c0 67.1-54.397 121.5-121.5 121.5-67.103 0-121.5-54.4-121.5-121.5S766.397 946 833.5 946c67.103 0 121.5 54.4 121.5 121.5Zm-225.694 0c0 57.55 46.649 104.19 104.194 104.19s104.194-46.64 104.194-104.19S891.045 963.306 833.5 963.306 729.306 1009.95 729.306 1067.5Z" fill="#fff" fill-opacity=".3"/><path d="M928 1067.5c0 52.19-42.309 94.5-94.5 94.5s-94.5-42.31-94.5-94.5 42.309-94.5 94.5-94.5 94.5 42.31 94.5 94.5Zm-171.54 0c0 42.55 34.492 77.04 77.04 77.04 42.548 0 77.04-34.49 77.04-77.04 0-42.55-34.492-77.04-77.04-77.04-42.548 0-77.04 34.49-77.04 77.04Zm-579.46 0c0 67.1-54.397 121.5-121.5 121.5-67.103 0-121.5-54.4-121.5-121.5S-11.603 946 55.5 946c67.103 0 121.5 54.4 121.5 121.5Zm-225.695 0c0 57.55 46.65 104.19 104.195 104.19 57.545 0 104.194-46.64 104.194-104.19S113.045 963.306 55.5 963.306-48.695 1009.95-48.695 1067.5Z" fill="#fff" fill-opacity=".3"/><path d="M150 1067.5c0 52.19-42.309 94.5-94.5 94.5-52.19 0-94.5-42.31-94.5-94.5S3.31 973 55.5 973c52.191 0 94.5 42.31 94.5 94.5Zm-171.54 0c0 42.55 34.492 77.04 77.04 77.04 42.548 0 77.04-34.49 77.04-77.04 0-42.55-34.492-77.04-77.04-77.04-42.548 0-77.04 34.49-77.04 77.04Z" fill="#fff" fill-opacity=".3"/><path d="M674.969 900.069H177.001V389.141c0-108.704 88.436-197.141 197.14-197.141h103.687c108.704 0 197.141 88.437 197.141 197.141v510.928Z" fill="#F2F2F2"/><path d="M570.059 389.143v509.705H178.224V389.139a194.393 194.393 0 0 1 40.134-118.795l.005-.007a195.892 195.892 0 0 1 41.697-40.472l.008-.005a191.15 191.15 0 0 1 2.699-1.927 195.423 195.423 0 0 1 42.668-22.313l.004-.002c.898-.34 1.808-.68 2.716-1.005a195.236 195.236 0 0 1 42.176-9.945l.01-.002.009-.001c.874-.119 1.776-.213 2.701-.31h.003a198.35 198.35 0 0 1 42.177 0h.003l.018.002c.916.096 1.812.189 2.692.309l.009.002.009.001a195.207 195.207 0 0 1 42.166 9.945c.908.324 1.818.664 2.718 1.005l.005.001a194.935 194.935 0 0 1 42.173 21.986h.001c.91.625 1.821 1.264 2.72 1.904a197.858 197.858 0 0 1 24.926 21.104 195.54 195.54 0 0 1 17.252 19.728l.005.006a194.392 194.392 0 0 1 40.131 118.791v.004Z" fill="#CCC" stroke="#55229E" stroke-width="2.447"/><path d="M539.22 671.55c12.056 0 21.829-9.773 21.829-21.829 0-12.055-9.773-21.828-21.829-21.828-12.055 0-21.828 9.773-21.828 21.828 0 12.056 9.773 21.829 21.828 21.829Z" fill="#55229E"/><path d="M634.175 884.767h-16.726l-7.958-64.515 24.687.001-.003 64.514Z" fill="#FFB8B8"/><path d="M605.501 879.987h32.257v20.31h-52.567a20.302 20.302 0 0 1 5.949-14.361 20.317 20.317 0 0 1 14.361-5.949Z" fill="#55229E"/><path d="M717.397 884.767h-16.726l-7.958-64.515 24.687.001-.003 64.514Z" fill="#FFB8B8"/><path d="M688.723 879.987h32.257v20.31h-52.567a20.302 20.302 0 0 1 5.949-14.361 20.317 20.317 0 0 1 14.361-5.949Z" fill="#55229E"/><path d="M550.269 654.046a14.656 14.656 0 0 1 6.154-21.615l56.858-156.712 27.978 15.269-64.92 149.759a14.737 14.737 0 0 1-26.07 13.299Zm158.584 29.446a14.655 14.655 0 0 1-3.947-22.124l-17.614-165.775 31.839 1.455 7.32 163.061a14.737 14.737 0 0 1 1.587 19.508 14.732 14.732 0 0 1-19.185 3.875Zm-50.794-236.799c18.506 0 33.508-15.002 33.508-33.509 0-18.506-15.002-33.508-33.508-33.508s-33.508 15.002-33.508 33.508c0 18.507 15.002 33.509 33.508 33.509Z" fill="#FFB8B8"/><path d="M708.639 645.789H607.617l.121-.786c.182-1.175 18.005-117.928 4.86-156.124a16.12 16.12 0 0 1 8.28-19.897c18.789-8.847 54.855-19.743 85.296 6.698a38.52 38.52 0 0 1 12.906 31.919l-10.441 138.19Z" fill="#55229E"/><path d="M408.931 338.663h-2.729v414.746h2.729V338.663Z" fill="#554CE4"/><path d="m627.019 544.331-45.481-9.227 21.319-50.52a19.096 19.096 0 0 1 36.98 9.547l-12.818 50.2Zm58.251 17.13-2.734-62.678c-2.074-11.782 4.671-22.921 15.044-24.741 10.376-1.814 20.508 6.358 22.591 18.227l10.277 58.566-45.178 10.626Z" fill="#55229E"/><path d="M705.278 638.287c16.255 61.907 18.028 140.617 13.643 226.473l-21.829-2.728-39.564-163.716-21.829 166.444-24.557-1.364c-7.337-90.084-14.48-167.42-2.729-218.287l96.865-6.822Zm-25.14-199.207c-6.252 6.659-17.861 3.084-18.675-6.013-.064-.706-.06-1.417.013-2.122.421-4.03 2.749-7.688 2.191-11.942a6.256 6.256 0 0 0-1.146-2.932c-4.981-6.671-16.675 2.983-21.376-3.055-2.883-3.703.506-9.533-1.706-13.671-2.92-5.462-11.568-2.768-16.991-5.759-6.034-3.328-5.673-12.586-1.701-18.217 4.844-6.867 13.337-10.532 21.724-11.06 8.387-.528 16.717 1.739 24.547 4.791 8.897 3.467 17.719 8.258 23.194 16.081 6.658 9.514 7.299 22.304 3.969 33.428-2.026 6.767-8.939 15.033-14.043 20.471Z" fill="#2F2E41"/><path d="M462.821 752.045H285.462a8.822 8.822 0 0 1-8.868-8.753V347.415a8.821 8.821 0 0 1 8.868-8.752h177.359a8.816 8.816 0 0 1 6.243 2.543 8.817 8.817 0 0 1 2.625 6.209v395.877a8.82 8.82 0 0 1-8.868 8.753Z" fill="#fff"/><path d="M471.689 466.755H276.594v2.728h195.095v-2.728Zm.682 155.68H277.276v2.729h195.095v-2.729Z" fill="#55229E"/><path d="M340.716 338.663h-2.729v414.746h2.729V338.663Z" fill="#55229E"/><path d="M165 47.5C165 114.603 110.603 169 43.5 169-23.603 169-78 114.603-78 47.5-78-19.603-23.603-74 43.5-74 110.603-74 165-19.603 165 47.5Zm-225.695 0c0 57.545 46.65 104.194 104.195 104.194 57.545 0 104.194-46.649 104.194-104.194S101.045-56.695 43.5-56.695-60.695-10.045-60.695 47.5Z" fill="#fff" fill-opacity=".3"/><path d="M138 47.5c0 52.19-42.31 94.5-94.5 94.5S-51 99.69-51 47.5-8.69-47 43.5-47 138-4.69 138 47.5Zm-171.54 0c0 42.548 34.492 77.04 77.04 77.04 42.548 0 77.04-34.492 77.04-77.04 0-42.548-34.492-77.04-77.04-77.04-42.548 0-77.04 34.492-77.04 77.04Z" fill="#fff" fill-opacity=".3"/></svg>