<svg xmlns="http://www.w3.org/2000/svg" width="447" height="570"><path d="M0 0h447v570H0z" fill="#9373C1"/><path d="M64.375 495.813c13.444 11.507 21.42 27.224 22.938 44.808.318 9.561-.974 19.7-5.313 28.379l283-1-4-13c-.307-3.384-.49-6.344-.375-9.687l.05-2.475c.526-18.127 7.864-33.339 20.993-45.924 14.509-11.908 30.738-16.193 49.344-15.131 4.76.52 12.46 1.689 15.988 5.217v83H0v-83c21.149-10.574 46.038-5.081 64.375 8.813" fill="#B19BD2"/><path d="M303.563 159.688c4.727.076 8.704 1.379 12.437 4.312l1.271 3.048c1.625 2.46 2.471 2.9 5.406 3.5 3.627.196 7.214.203 10.846.151q2.022.005 4.043.02c3.546.02 7.09.005 10.636-.018 5.667-.035 11.334-.029 17.001-.004 1.973.002 3.946-.016 5.92-.035h3.66l3.207-.02c4.638.552 7.918 2.367 11.35 5.481 2.314 4.01 2.254 7.348 2.226 11.904l.02 2.626q.01 2.742-.01 5.484a448 448 0 0 0 .059 8.361q0 2.67-.006 5.342l.04 2.51c-.067 4.183-.405 6.849-3.083 10.16-3.194 3.076-4.486 3.616-8.76 3.604h-2.609l-2.819-.016-2.883-.005a3923 3923 0 0 1-9.14-.03l-6.187-.014A8113 8113 0 0 1 341 226l-1-4-2.336.875-3.039 1.125-3.023 1.125C329 226 329 226 327 226l1.297 3.773c1.851 5.566 3.434 11.188 4.953 16.852l.852 3.023.789 2.954.72 2.635c.485 3.445-.05 6.336-.611 9.763q-.19 3.357-.281 6.719l-.114 3.828-.105 3.953c-.279 10.192-.753 20.333-1.5 30.5 7.03-.016 14.058-.071 21.088-.153q3.586-.034 7.172-.043c3.44-.009 6.876-.05 10.314-.097l3.236.012c6.132-.092 6.132-.092 11.342-3.138 3.07-4.288 3.038-7.553 3.086-12.694l.025-2.444q.02-2.564.032-5.127c.017-2.608.061-5.214.105-7.822q.015-2.49.026-4.982l.053-2.356c-.015-3.726-.339-5.93-2.318-9.125-3.871-3.638-8.083-3.235-13.11-3.347l-2.341-.063a2801 2801 0 0 0-7.397-.183l-5.018-.131q-6.147-.16-12.295-.307v-1q7.739-.186 15.479-.275 2.63-.038 5.26-.102c2.528-.061 5.053-.09 7.581-.111l2.359-.078c4.085-.003 6.572.358 9.801 2.972 5.464 5.625 3.86 14.004 3.925 21.45q.033 2.819.103 5.636c.067 2.715.094 5.429.113 8.145l.084 2.523c-.018 5.206-.945 8.786-4.666 12.564-4.23 2.647-8.95 2.12-13.781 1.96l-3.405-.03c-3.577-.04-7.152-.127-10.728-.216q-3.645-.054-7.29-.096c-5.945-.077-11.89-.194-17.835-.342l.076 2.018q.394 10.515.778 21.029.144 3.91.292 7.82C336.4 375.242 336.4 375.242 336 383c-1.738 1.738-4.079 1.172-6.437 1.188l-2.997.042C324 384 324 384 322 382c-.547-1.99-.547-1.99-.965-4.453l-.48-2.783-.493-3.014-.525-3.107c-1.32-7.948-2.42-15.917-3.458-23.905a223 223 0 0 0-3.43-19.254c-.544-2.921-.906-5.749-1.19-8.702l-.263-2.717L311 312l-.031 2.65q-.147 12.34-.308 24.679-.084 6.345-.158 12.688-.072 6.118-.156 12.235-.031 2.34-.056 4.679-.037 3.264-.086 6.53c-.015 1.241-.03 2.482-.047 3.761C310 382 310 382 309 383c-2.165.099-4.333.13-6.5.125l-3.594.008C296 383 296 383 295 382c-1.035-5.993-1.196-12.122-1.437-18.187a402 402 0 0 0-1.5-21.063c-1.416-14.554-2.207-29.154-3.063-43.75l-3-1 .013-2.052q.066-10.635.097-21.27.015-3.96.04-7.922c.025-3.81.037-7.621.045-11.432l.032-3.54c.185-12.585.185-12.585-4.426-23.905l-2.488-2.316C276.8 223.19 276.8 223.19 275 221c-.059-2.082-.059-2.082 1-4 2.04-1.64 2.04-1.64 4.625-3.25 8.33-5.28 8.33-5.28 12.76-13.668.574-4.691.655-9.361.615-14.082h1l1 14 2.75-1.5c6.636-2.808 14.35-2.607 21 .063 7.694 4.02 12.729 9.756 17.75 16.687l1.351 1.863C342 221.618 342 221.618 342 225q8.38-.067 16.76-.208 2.849-.042 5.698-.063a750 750 0 0 0 8.206-.12l2.558-.003c5.35-.132 8.582-.968 12.778-4.606 1.252-3.756 1.201-7.296 1.238-11.21l.025-2.44q.02-2.556.032-5.11c.017-2.599.061-5.196.105-7.795q.015-2.484.026-4.968l.053-2.346c-.015-3.76-.332-5.901-2.38-9.098-3.364-3.259-5.424-3.173-10.017-3.238l-3.761-.06-4.079-.051-4.161-.063a5717 5717 0 0 0-10.96-.153q-5.59-.077-11.18-.161-10.97-.162-21.941-.307l.042 3.853c.045 4.174-.533 6.623-3.155 9.928-4.147 2.679-9.315 1.17-13.887.219-3.75-1.062-3.75-1.062-6-2 .506-2.169 1-4 2-6l-2.812-.75C294 177 294 177 292.438 174.875L291 173a100 100 0 0 0-5 0c-1.812-1.187-1.812-1.187-3-3-.437-2.437-.437-2.437 0-5 1.64-2.148 1.64-2.148 4-4 2.98-.355 2.98-.355 6.188-.187A209 209 0 0 0 299 161c1-1 1-1 4.563-1.312" fill="#56249E"/><path d="M0 0h77c3.383 10.15 3.383 10.15 3.434 14.672l.034 2.993-.03 3.085-.023 3.216C80.246 31.973 79.362 38.648 76 46l-1.285 2.867C71.213 55.91 66.528 61.452 61 67l-1.863 1.934c-11.12 10.69-26.222 15.232-41.324 15.441l-2.232.043C9.512 84.364 6.185 83.062 0 81z" fill="#9474C2"/><path d="m61.66 171.807 2.394-.025q3.934-.036 7.868-.055l2.713-.017q7.11-.039 14.22-.06c4.894-.017 9.788-.062 14.681-.112 3.765-.034 7.53-.046 11.294-.051q2.705-.01 5.41-.046c2.529-.032 5.055-.032 7.583-.024l2.249-.05c5.737.068 8.054 1.703 11.928 5.633 2.56 5.12 1.313 13.211 1.35 18.911q.025 2.829.082 5.656c.055 2.723.077 5.444.091 8.167l.07 2.539c-.016 4.178-.295 6.907-2.938 10.244-4.179 3.908-7.924 3.64-13.352 3.66l-2.37.02c-2.59.02-5.18.031-7.769.041l-2.68.013q-7.022.03-14.043.044c-4.834.011-9.668.046-14.503.085-3.718.026-7.436.035-11.154.038q-2.673.008-5.346.035a583 583 0 0 1-7.482.017l-2.227.039c-4.865-.05-7.294-1.084-10.729-4.509-2.812-3.72-2.342-8.24-2.371-12.71-.01-.847-.018-1.692-.027-2.564a888 888 0 0 1-.028-5.36 577 577 0 0 0-.111-8.17q-.015-2.61-.022-5.22l-.059-2.453c.033-4.147.373-6.74 3.028-10.022 4.018-3.88 6.905-3.664 12.25-3.694" fill="#55239E"/><path d="m185.4 257.839 2.311-.015q3.795-.021 7.59-.027l5.269-.017q5.529-.015 11.059-.02c4.72-.006 9.442-.03 14.163-.058 3.63-.019 7.26-.024 10.89-.026q2.61-.004 5.22-.024c2.437-.017 4.873-.015 7.31-.008l2.175-.028c4.386.036 7.11.724 10.613 3.384 3.37 4.102 3.44 8.08 3.398 13.187l.01 2.365q.002 2.465-.017 4.931c-.016 2.51 0 5.016.02 7.525q-.004 2.402-.013 4.804l.019 2.261c-.06 4.483-.48 7.474-3.417 10.927-4.6 2.816-8.477 3.438-13.762 3.404l-2.284.02c-2.476.02-4.95.015-7.427.01l-5.184.015q-5.423.013-10.846-.003c-4.63-.011-9.258.009-13.887.038-3.567.018-7.133.018-10.699.012q-2.56 0-5.12.019c-2.387.015-4.772.004-7.158-.013l-2.128.029c-4.757-.071-7.16-1.173-10.505-4.531-1.67-3.34-1.206-7.095-1.238-10.77l-.025-2.645q-.02-2.775-.032-5.551a889 889 0 0 0-.105-8.473q-.015-2.697-.026-5.393l-.053-2.554c.015-4.071.155-6.102 2.38-9.624 3.644-3.454 6.712-3.144 11.499-3.151" fill="#F1F1F1"/><path d="m64.33 257.839 2.252-.015q3.69-.021 7.379-.027l5.13-.017q5.379-.015 10.759-.02c4.592-.006 9.184-.03 13.776-.058 3.533-.019 7.066-.024 10.598-.026a850 850 0 0 0 5.079-.024 702 702 0 0 1 7.109-.008l2.113-.028c4.335.037 7.01.768 10.475 3.384 3.37 4.102 3.44 8.08 3.398 13.187l.01 2.365q.002 2.465-.017 4.931c-.016 2.51 0 5.016.02 7.525q-.004 2.402-.013 4.804l.019 2.261c-.06 4.483-.48 7.474-3.417 10.927-4.6 2.816-8.477 3.438-13.762 3.404l-2.284.02c-2.476.02-4.95.015-7.427.01l-5.184.015q-5.423.013-10.846-.003c-4.63-.011-9.258.009-13.887.038-3.567.018-7.133.018-10.699.012q-2.56 0-5.12.019c-2.387.015-4.772.004-7.158-.013l-2.128.029c-4.757-.071-7.16-1.173-10.505-4.531-2.566-5.132-1.313-13.253-1.35-18.966a497 497 0 0 0-.082-5.677 557 557 0 0 1-.091-8.189l-.07-2.554c.016-4.354.176-6.078 2.938-9.624 4.246-3.183 7.89-3.143 12.985-3.151" fill="#F0F0F1"/><path d="M45.688 510.75c8.957 6.43 15.424 13.765 17.624 24.813C65.254 548.833 62.18 556.642 56 569H0l-.5-27.687-.22-8.722q-.036-3.426-.061-6.853l-.124-3.586c-.007-8.173-.007-8.173 2.614-10.987C3.767 509.855 5.736 508.9 8 508l3.563-1.812c11.213-3.871 24.275-1.63 34.125 4.562m398.943-.46c3.928 4.494 2.98 9.594 2.857 15.35l-.021 3.75a979 979 0 0 1-.124 9.844c-.05 3.352-.073 6.703-.099 10.055Q447.16 559.144 447 569c-7.74.203-15.481.343-23.224.44q-3.95.06-7.9.164c-3.786.097-7.57.142-11.356.177l-3.568.125c-7.983.005-7.983.005-10.773-2.617-1.308-2.057-2.27-4.031-3.179-6.289l-1.813-3.5c-2.876-8.319-2.298-19.936.645-28.129 5.477-11.12 13.775-18.704 25.168-23.371 11.198-3.651 23.445-.702 33.631 4.29" fill="#9474C2"/><path d="m184.66 171.807 2.394-.025q3.934-.036 7.868-.055l2.713-.017q7.11-.039 14.22-.06c4.894-.017 9.788-.062 14.681-.112 3.765-.034 7.53-.046 11.294-.051q2.705-.01 5.41-.046c2.529-.032 5.055-.032 7.583-.024l2.249-.05c5.737.068 8.054 1.703 11.928 5.633 1.64 3.279 1.12 6.906 1.098 10.508l-.005 2.547c-.005 2.69-.018 5.38-.03 8.07q-.008 2.732-.014 5.465-.017 6.705-.049 13.41c-13.382-8.498-13.382-8.498-16.563-10.625l-2.44-1.602C245 203 245 203 243.972 200.414c-1.204-2.988-2.163-3.082-4.973-4.414-1.309-2.023-1.309-2.023-2.438-4.375-2.745-5.247-6.09-8.32-11.562-10.625-6.853-.93-12.745-.714-18.375 3.543-3.712 3.328-5.39 5.61-6.035 10.672-.276 6.63-.108 11.895 3.98 17.3 4.3 4.464 9.18 5.612 15.18 5.86 5.506-.049 9.104-1.823 13.25-5.375l1.687-2.313C236 209 236 209 238.242 208.57c3.871.603 5.67 2.84 8.195 5.617 4.424 4.681 4.424 4.681 9.25 8.938L258 225v1q-15.713.141-31.424.207-7.296.03-14.592.095-7.04.063-14.083.078-2.686.01-5.371.043c-2.51.029-5.018.033-7.527.031l-2.24.044c-4.882-.04-7.319-1.057-10.763-4.498-2.812-3.72-2.342-8.24-2.371-12.71-.01-.847-.018-1.692-.027-2.564a888 888 0 0 1-.028-5.36 577 577 0 0 0-.111-8.17q-.015-2.61-.022-5.22l-.059-2.453c.033-4.147.373-6.74 3.028-10.022 4.018-3.88 6.905-3.664 12.25-3.694" fill="#56239E"/><path d="M321 173a3889 3889 0 0 1 23.992-.207q5.571-.03 11.142-.095 5.377-.063 10.756-.078 2.05-.01 4.1-.043c1.916-.03 3.834-.03 5.751-.031l3.304-.027c3.684.6 5.296 1.91 7.955 4.481 2.522 3.783 2.306 6.827 2.3 11.21l.014 2.44q.008 2.556.002 5.11c-.003 2.599.02 5.196.045 7.795q.004 2.484.002 4.968l.028 2.346c-.039 4.562-.447 7.582-3.391 11.131-4.39 3.733-8.763 3.393-14.238 3.293l-2.67-.013a1070 1070 0 0 1-8.404-.093q-2.858-.022-5.713-.04-6.988-.053-13.975-.147l-2.94-5.188c-5.2-8.89-11.583-18.024-21.76-21.343-7.95-1.62-14.988-.844-22.3 2.531v-14l6 2c5.99.78 10.779.028 16-3 2.528-2.949 3.148-5.417 3.57-9.176z" fill="#F0F0F1"/><path d="M347 257q7.739-.186 15.479-.275 2.63-.038 5.26-.102c2.528-.061 5.053-.09 7.581-.111l2.359-.078c4.085-.003 6.572.358 9.801 2.972 5.464 5.625 3.86 14.004 3.925 21.45q.033 2.819.103 5.636c.067 2.715.094 5.429.113 8.145l.084 2.523c-.018 5.206-.945 8.786-4.666 12.564-4.23 2.647-8.95 2.12-13.781 1.96l-3.405-.03c-3.577-.04-7.152-.127-10.728-.216q-3.645-.054-7.29-.096c-5.945-.077-11.89-.194-17.835-.342l.076 2.018q.394 10.515.778 21.029.144 3.91.292 7.82C336.4 375.242 336.4 375.242 336 383c-1.738 1.738-4.079 1.172-6.437 1.188l-2.997.042C324 384 324 384 322 382c-.547-1.99-.547-1.99-.965-4.453l-.48-2.783-.493-3.014-.525-3.107c-1.32-7.948-2.42-15.917-3.458-23.905a223 223 0 0 0-3.43-19.254c-.544-2.921-.906-5.749-1.19-8.702l-.263-2.717L311 312l-.031 2.65q-.147 12.34-.308 24.679-.084 6.345-.158 12.688-.072 6.118-.156 12.235-.031 2.34-.056 4.679-.037 3.264-.086 6.53c-.015 1.241-.03 2.482-.047 3.761C310 382 310 382 309 383c-2.165.099-4.333.13-6.5.125l-3.594.008C296 383 296 383 295 382c-1.035-5.993-1.196-12.122-1.437-18.187A460 460 0 0 0 292 341.5l-.265-2.844c-.346-3.671-.702-7.34-1.087-11.008-.94-9.529-.733-19.083-.648-28.648l1.902.488c4.232.7 8.378.703 12.66.7h2.698c6.75-.059 13.135-.778 19.74-2.188l6-1v13q10.544-.03 21.088-.153 3.586-.034 7.172-.043c3.44-.009 6.876-.05 10.314-.097l3.236.012c6.132-.092 6.132-.092 11.342-3.138 3.07-4.288 3.038-7.553 3.086-12.694l.025-2.444q.02-2.564.032-5.127c.017-2.608.061-5.214.105-7.822q.015-2.49.026-4.982l.053-2.356c-.015-3.726-.339-5.93-2.318-9.125-3.871-3.638-8.083-3.235-13.11-3.347l-2.341-.063a2801 2801 0 0 0-7.397-.183l-5.018-.131q-6.147-.16-12.295-.307z" fill="#302E42"/><path d="M364 0h26l-4 9c-3.254 11.62-1.718 22.583 3.98 32.95 4.662 7.04 9.54 11.13 17.02 15.05l1.934 1.043c8.45 3.87 19.473 2.964 28.066-.043l10-5v26c-15.778 6.311-31.04 7.369-47 1-16.053-7.114-28.17-18.773-35-35l-1.195-2.785c-2.566-6.953-3.187-13.5-3.243-20.84l-.03-2.6C360.626 11.78 362.056 7.127 364 0M52 0h25c3.383 10.15 3.383 10.15 3.434 14.672l.034 2.993-.03 3.085-.023 3.216C80.246 31.973 79.362 38.648 76 46l-1.285 2.867C71.213 55.91 66.528 61.452 61 67l-1.863 1.934c-11.12 10.69-26.222 15.232-41.324 15.441l-2.232.043C9.512 84.364 6.185 83.062 0 81V57l11 3c11.873 1.275 22.162-1.228 32-8 7.821-6.825 13.248-16.365 14.273-26.777.25-7.757-1.084-13.53-4.18-20.641C52 2 52 2 52 0" fill="#B29CD3"/><path d="M335 258c3.545 3.545 3.761 8.9 4.313 13.75C339 274 339 274 337.5 276.313c-2.027 3.632-2.119 6.61-1.5 10.687 1.637 3.586 2.69 4.793 6 7 2.148.316 2.148.316 4.438.25l2.308.016c2.53-.298 4.108-.906 6.254-2.266 2.588-4.067 3.7-7.197 3-12-1.729-3.149-3.088-5.41-6.125-7.375-2.942-2.55-3.352-5.865-3.875-9.625a336 336 0 0 1 0-5q7.125-.111 14.252-.165 2.423-.022 4.844-.061c2.326-.037 4.652-.054 6.978-.067l2.176-.047c5.551-.002 8.538 1.27 12.535 5.01 1.794 3.44 1.663 6.813 1.649 10.603l.015 2.429q.01 2.539-.003 5.078c-.008 2.58.02 5.157.052 7.736q.003 2.473-.002 4.945l.034 2.32c-.067 5.172-1.118 8.12-4.53 12.219-3.264 2.176-4.159 2.246-7.93 2.227h-3.033l-3.267-.032-3.35-.008c-3.536-.011-7.072-.037-10.608-.062q-3.593-.016-7.185-.027-8.814-.034-17.627-.098a771 771 0 0 1 .438-30.5l.119-3.953.127-3.828.11-3.408c.216-3.478.67-6.87 1.206-10.311" fill="#F0EFF0"/><path d="M104.41 180.953c5.019 2.965 8.454 6.49 10.84 11.86 1.563 6.644 1.313 11.425-1.977 17.363-2.84 4.068-6.706 6.908-11.273 8.824-6.236.804-11.477.14-17-3-4.392-3.793-7.604-7.431-8.504-13.27-.114-6.902-.083-11.95 4.75-17.175L83 184l1.535-1.367c5.614-4 13.594-4.164 19.875-1.68" fill="#FBFAFD"/><path d="M447 502c.293 2.602.293 2.602.188 5.625l-.083 3.04L447 513l-1.941-1.023-2.622-1.352-2.566-1.336c-9.339-4.193-20.525-5.315-30.246-1.664A92 92 0 0 0 405 510l-2.328 1.215c-7.834 4.596-13.588 11.928-16.672 20.473-2.845 11.772-1.821 22.676 4 33.312l2 3c2.419.477 2.419.477 5.276.432l3.336.06 3.615.02 3.69.054c3.903.054 7.805.088 11.708.121q3.96.05 7.922.104 9.726.126 19.453.209v1h-81v-1h15l-1.875-4.125c-5.357-11.785-6.546-25.552-2.125-37.937 5.966-12.979 15.126-22.934 28.5-28.438a95 95 0 0 1 4.5-1.5l1.785-.574c11.57-2.225 25.307-1.031 35.215 5.574" fill="#B29CD3"/><path d="M52.691 504.32c9.983 7.263 17.09 17.678 19.871 29.774 1.92 12.745-.778 23.16-5.562 34.906h5v1H0v-1h56l2-5q1.024-2.222 2.063-4.437C64.24 550.149 63.85 539.792 61 530c-5.312-11.641-13.255-18.232-25-23-11.299-2.984-21.79-1.29-32 4l-4 2v-11q2.623-1.225 5.25-2.437l2.953-1.372c14.457-6.158 31.792-2.037 44.488 6.13" fill="#B29CD2"/><path d="M67 0h10c2.775 7.094 3.513 13.16 3.438 20.75l-.023 3.216C80.246 31.973 79.362 38.648 76 46l-1.285 2.867C71.213 55.91 66.528 61.452 61 67l-1.863 1.934C47.313 80.3 31.438 84.433 15.462 84.365 9.822 84.215 5.196 83.309 0 81v-9l2.352.438C18.447 75.203 32.922 75.12 47 66.062q2.025-1.5 4-3.062l1.852-1.328c9.62-7.374 15.806-20.217 17.832-32.008 1.09-9.177.1-16.896-2.684-25.664z" fill="#B39CD3"/><path d="M227.41 180.953c3.975 2.348 7.166 5.072 9.59 9.047.75 3.313.75 3.313 1 6l-2.437 1.125c-2.875 1.686-2.875 1.686-3.375 5.063L232 205l4 3c-1.572 5.145-4.304 7.417-8.863 10.094-5.123 2.172-10.785 1.327-15.95-.281-5.14-2.924-8.53-6.552-11.187-11.813-.997-6.47-1.331-13.097 2.563-18.625 1.683-1.82 1.683-1.82 3.437-3.375l1.535-1.367c5.614-4 13.594-4.164 19.875-1.68" fill="#FBFAFD"/><path d="M340 222c2.02 5.83 3.365 11.67 4.375 17.75 1.2 7.023 2.49 14.023 3.938 21l.534 2.85c1.352 6.299 2.933 8.676 8.153 12.4 2.476 3.655 2.19 6.565 1.617 10.809-.953 3.382-2.904 5.073-5.617 7.191-3.487 1.743-7.196 1.58-11 1-3.576-1.914-5.698-4.093-7-8-.469-7.268-.469-7.268 1.563-10.437 3.518-6.273-.6-16.24-2.375-22.813l-.81-3.056c-1.74-6.512-3.608-12.962-5.714-19.366C327 229 327 229 327 226q2.685-1.005 5.375-2l3.023-1.125C338 222 338 222 340 222" fill="#9F616C"/><path d="M379 0h11l-3.027 6.543c-3.293 8.317-3.927 20.055-.586 28.473C391.179 45.33 396.957 51.738 407 57l1.934 1.043c8.45 3.87 19.473 2.964 28.066-.043 3.4-1.567 6.687-3.251 10-5v11c-11.667 5.556-23.635 8.408-36.54 5.09-9.01-3.282-17.066-7.855-23.46-15.09l-1.715-1.926c-9.073-10.8-11.102-23.189-10.49-36.969C375.307 9.846 377.115 4.911 379 0" fill="#B39CD3"/><path d="m301.375 388.688 2.23.068c1.8.058 3.598.148 5.395.244v10h4l.688-2.75c1.579-3.91 2.723-5.059 6.312-7.25 2.958-.47 5.827-.38 8.813-.25l2.388.055c1.934.047 3.866.118 5.799.195v10h89v2H193v-1h93l1-6c4.492-5.052 7.805-5.699 14.375-5.312" fill="#3F3D56"/><path d="m310 311 2 1c.492 2.352.492 2.352.875 5.625.859 6.664 1.947 13.26 3.125 19.875 1.29 7.298 2.49 14.59 3.5 21.934.65 4.632 1.348 9.256 2.063 13.878l.385 2.558c.286 3.886.286 3.886 2.052 7.13 2.02.072 4.042.084 6.063.063l3.347-.028L336 383v6l-3.324.043q-2.183.07-4.363.144l-2.186.018c-4.153.17-5.73.47-9.065 3.201-1.727 2.172-3.02 4.037-4.062 6.594h-4v-10h-10v-5l-2-1 12-1z" fill="#9071BD"/><path d="M303.563 159.688c6.182.1 10.567 2.488 14.937 6.75 2.258 5.363 2.475 10.832 1.5 16.562-1.664 2.906-1.664 2.906-4 5-2.805.34-2.805.34-5.875-.062l-3.195-.407c-3.113-.564-6.006-1.313-8.93-2.531.506-2.169 1-4 2-6l-2.812-.75C294 177 294 177 292.438 174.875L291 173a100 100 0 0 0-5 0c-1.812-1.187-1.812-1.187-3-3-.437-2.437-.437-2.437 0-5 1.64-2.148 1.64-2.148 4-4 2.98-.355 2.98-.355 6.188-.187A209 209 0 0 0 299 161c1-1 1-1 4.563-1.312" fill="#302F42"/><path d="M55 500c11.413 8.473 19.88 20.289 22.64 34.375 1.656 12.092-.166 23.678-5.64 34.625h-5c.665-3.817 1.778-7.287 3.063-10.937 3.973-12.91 2.48-24.989-3.536-37.004-7.108-12.083-16.731-18.763-29.812-23.164-4.247-1.023-8.115-1.278-12.465-1.27l-2.39-.002C15.273 496.747 10 498.303 4 501a76 76 0 0 1-4 1c-.312-2.312-.312-2.312 0-5 14.555-12.614 40.641-6.106 55 3m367.563-9.437 2.335-.012c7.977.157 14.764 2.418 22.102 5.449v6c-.958-.36-1.916-.722-2.902-1.094-12.895-4.599-26.055-6.512-39.192-1.351-13.498 6.712-22.966 16.19-28.058 30.656-2.704 12.088-1.83 24.443 3.152 35.789l1 3h-5a347 347 0 0 1-2.437-4.562l-1.372-2.567c-4.82-11.616-3.419-27.38 1.266-38.758 2.386-4.814 5.1-8.992 8.543-13.113l1.922-2.332c9.976-11.007 23.88-17.054 38.64-17.106" fill="#9575C2"/><path d="m238 194 1 2 2.438.813C244 198 244 198 244.9 200.375c1.296 3.096 2.468 3.988 5.24 5.816l2.496 1.674 2.613 1.697 2.566 1.71a731 731 0 0 0 4.952 3.263 309 309 0 0 1 5.654 3.817c2.522 1.794 2.522 1.794 5.578 2.46 4.227 1.674 6.312 4.623 9 8.188-2.986 3.202-5.813 4.604-10 6-4.499-.094-6.51-.6-10.027-3.477a152 152 0 0 1-2.91-3.148q-1.56-1.65-3.125-3.293l-1.516-1.61c-2.433-2.518-5.085-4.756-7.758-7.011C246 215 246 215 243.438 212.187c-2.983-2.676-5.6-3.192-9.438-4.187-2-1.25-2-1.25-3-3 .134-3.217.457-5.26 2.375-7.875C235 196 235 196 238 196z" fill="#9F616C"/><path d="M374 0h5c-.536 2.858-1.172 5.537-2.062 8.313-2.844 11.396-1.817 25.313 3.644 35.695C383.559 48.87 386.64 53.278 391 57l1.664 1.45C403.534 67.327 415.381 69.56 429 69c6.218-.8 12.111-2.912 18-5v5a340 340 0 0 1-3.562 1.875l-2.004 1.055c-11.57 5.088-25.7 4.435-37.434.07-13.26-5.608-23.784-14.908-30-28l-1.246-2.59c-4.573-11.282-4.723-26.286-.508-37.73A98 98 0 0 1 374 0" fill="#9576C2"/><path d="M62 0h5c6.444 11.423 6.298 24.228 3.102 36.7C65.49 50.515 56.722 61.846 44 69c-14.06 6.26-26.87 7.838-42 4l-2-1v-5l1.844.438c15.43 3.267 29.13 2.5 42.906-5.626 11.466-7.765 17.767-18.356 20.742-31.746 1.527-9.222.426-16.638-2.617-25.449C62 2 62 2 62 0" fill="#9575C2"/><path d="M106 271c3.752 2.015 5.636 3.455 8 7 .666 4.075.945 8.244-1.05 11.953-2.405 2.922-4.348 4.874-8.157 5.285-7.04.2-7.04.2-10.793-1.988-3.697-4.159-4.499-7.59-4.39-13.062.631-3.538 2.626-5.067 5.39-7.188 3.705-2.47 6.702-2.674 11-2" fill="#57259F"/><path d="m328.813 388.75 2.388.055c1.934.047 3.866.118 5.799.195v10h89v1H309l4-1 .938-2.812c2.516-7.55 7.937-7.74 14.875-7.438" fill="#5B3396"/><path d="M350 272c3.17.34 3.999.999 6.188 3.438 2.948 4.168 2.994 6.33 2.394 11.3-.888 3.45-2.834 5.117-5.582 7.262-3.487 1.743-7.196 1.58-11 1-3.576-1.914-5.698-4.093-7-8-.35-5.43-.375-8.5 3-13l3 1c.696 3.739 1 7.207 1 11l1 3c4.665.357 4.665.357 9-1.062 1.618-3.136.764-5.59 0-8.938a88 88 0 0 0-2-4z" fill="#5A289F"/><path d="m301.375 388.688 2.23.068c1.8.058 3.598.148 5.395.244v11h-22c0-6 0-6 2.477-8.855 3.821-2.808 7.309-2.727 11.898-2.457" fill="#323044"/><path d="M347 257q7.739-.186 15.479-.275 2.63-.038 5.26-.102c2.528-.061 5.053-.09 7.581-.111l2.359-.078c4.085-.003 6.572.358 9.801 2.972 5.464 5.625 3.86 14.004 3.925 21.45q.033 2.819.103 5.636c.067 2.715.094 5.429.113 8.145l.084 2.523c-.018 5.206-.945 8.786-4.666 12.564-4.23 2.647-8.95 2.12-13.781 1.96l-3.405-.03c-3.577-.04-7.152-.127-10.728-.216q-3.645-.054-7.29-.096c-5.945-.077-11.89-.194-17.835-.342v-1l1.827-.004a2150 2150 0 0 0 18.833-.149q3.514-.034 7.028-.043c3.369-.009 6.736-.05 10.105-.097l3.17.012c6.046-.102 6.046-.102 11.175-3.138 3.091-4.284 3.052-7.547 3.1-12.694l.025-2.444q.02-2.564.032-5.127c.017-2.608.061-5.214.105-7.822q.015-2.49.026-4.982l.053-2.356c-.015-3.726-.339-5.93-2.318-9.125-3.871-3.638-8.083-3.235-13.11-3.347l-2.341-.063a2801 2801 0 0 0-7.397-.183l-5.018-.131q-6.147-.16-12.295-.307z" fill="#57259F"/><path d="m291 172 1.688 2.375c2.389 2.712 3.913 3.586 7.312 4.625l-2 6 12 2v3c-6.614.54-10.606-.008-16-4-3.756-4.24-3.316-8.633-3-14" fill="#9E636D"/><path d="M335 258c3.545 3.545 3.761 8.9 4.313 13.75C339 274 339 274 337.5 276.188c-2.226 4.173-1.743 8.174-1.5 12.812h-2c-.03-3.854-.047-7.708-.062-11.562l-.026-3.292c-.017-5.494.102-10.736 1.088-16.146" fill="#E5E0E9"/><path d="M105 195c-1.432 3.33-3.182 5.4-5.875 7.813l-2.055 1.894C95 206 95 206 92.883 205.766A61 61 0 0 1 87 203v-3l3.063.875c4.344.138 4.644-.057 7.624-2.812l1.637-1.715C101 195 101 195 105 195" fill="#6334A6"/><path d="M228 195c-2.055 4.565-5.012 7.98-9 11-2.687.188-2.687.188-5-1-2.312-2.062-2.312-2.062-4-4 3.01-.934 3.867-1.044 7 0 1.769-1.212 1.769-1.212 3.438-2.937C223.362 195.19 223.586 195 228 195" fill="#6132A5"/><path d="M297 383h10v6h-8v-5z" fill="#975D68"/><path d="M336 383v6h-8v-5c6.875-1 6.875-1 8-1" fill="#9F616A"/><path d="M389 302h2c-1.306 3.918-2.831 6.326-6 9h-2c1.12-3.361 2.497-4.575 5-7z" fill="#6B40AA"/></svg>